<svg xmlns="http://www.w3.org/2000/svg" width="720" height="360" viewBox="0 0 720 360" role="img" aria-labelledby="title"><title id="title">Ancienne machine à écrire</title><defs><linearGradient id="body" x2="0.2" y2="1"><stop stop-color="#353739"/><stop offset="1" stop-color="#101719"/></linearGradient><linearGradient id="paper" x2="0" y2="1"><stop stop-color="#fffef4"/><stop offset="1" stop-color="#e6dfc8"/></linearGradient></defs><ellipse cx="358" cy="325" rx="310" ry="27" fill="#c8d2d4" opacity=".55"/><path d="M250 22h218v170H250z" fill="url(#paper)" stroke="#a3a49c" stroke-width="5"/><g fill="#a9a498"><rect x="276" y="58" width="163" height="3"/><rect x="276" y="76" width="145" height="3"/><rect x="276" y="94" width="163" height="3"/><rect x="276" y="112" width="155" height="3"/></g><path d="M170 153q11-46 67-49h247q58 0 67 49l82 150q6 15-12 19H97q-18-4-10-19z" fill="url(#body)" stroke="#515c5e" stroke-width="9"/><rect x="166" y="126" width="390" height="35" rx="14" fill="#14191b" stroke="#768083" stroke-width="7"/><circle cx="178" cy="145" r="17" fill="#a8a9a0" stroke="#353b3c" stroke-width="7"/><circle cx="542" cy="145" r="17" fill="#a8a9a0" stroke="#353b3c" stroke-width="7"/><path d="M299 196q62-58 122 0l-16 22H316z" fill="#d0aa68" stroke="#9b804f" stroke-width="5"/><path d="M333 179q27 24 53 0" fill="none" stroke="#5a4b32" stroke-width="6"/><path d="M155 234h414l48 70H105z" fill="#243033" stroke="#889293" stroke-width="5"/><g fill="#d9d4be" stroke="#111" stroke-width="5"><circle cx="186" cy="245" r="13"/><circle cx="232" cy="245" r="13"/><circle cx="278" cy="245" r="13"/><circle cx="324" cy="245" r="13"/><circle cx="370" cy="245" r="13"/><circle cx="416" cy="245" r="13"/><circle cx="462" cy="245" r="13"/><circle cx="508" cy="245" r="13"/><circle cx="209" cy="277" r="13"/><circle cx="255" cy="277" r="13"/><circle cx="301" cy="277" r="13"/><circle cx="347" cy="277" r="13"/><circle cx="393" cy="277" r="13"/><circle cx="439" cy="277" r="13"/><circle cx="485" cy="277" r="13"/></g><rect x="251" y="290" width="221" height="16" rx="7" fill="#d9d4be" stroke="#111" stroke-width="5"/><path d="M99 304h520l-13 25H110z" fill="#292a29" stroke="#777d7d" stroke-width="5"/></svg>